<?xml version="1.0" encoding="utf-8"?>
<!-- Generator: Adobe Illustrator 18.1.1, SVG Export Plug-In . SVG Version: 6.00 Build 0)  -->
<svg version="1.1" id="Layer_1" xmlns="http://www.w3.org/2000/svg" xmlns:xlink="http://www.w3.org/1999/xlink" x="0px" y="0px"
	 viewBox="0 0 500 500" enable-background="new 0 0 500 500" xml:space="preserve">
<g>
	<path fill="#FFFFFF" d="M353.8,0L146.7,0L0.3,146.4l0,207.1L146.7,500l207.1,0l146.4-146.4l0-207.1L353.8,0z M485.1,348.1
		c-32.5,10.2-63.2,20.5-92.9,31.3c15.1-40.5,31.3-79.6,49.4-119.2c13.4,28.7,27.9,57.7,43.6,87.8L485.1,348.1z M382.1,383
		c-44.8,16.5-87.4,34.2-130.5,54c-44.2-20.4-87.6-38.4-133-55.1c-16.7-45.4-34.5-88.6-54.6-132.2c20.4-44.2,38.3-87.6,55-133.1
		c45.4-16.7,88.5-34.5,132-54.6c43.4,20,86,37.7,130.5,54.2c16.9,46.2,35,90,55.4,134.3C416.7,294.5,398.8,337.8,382.1,383z
		 M378.5,393c-10.6,29.3-20.7,59.6-30.7,91.4c-29.7-15.5-58.3-29.8-86.5-43C300,423.9,338.4,408,378.5,393z M153.6,485.4
		c-10.2-32.7-20.6-63.6-31.4-93.5c40.7,15.2,79.9,31.4,119.7,49.6C213.1,455,183.9,469.5,153.6,485.4L153.6,485.4z M108.6,378.2
		c-29.7-10.7-60.3-21-92.7-31C31.7,317,46.2,288,59.5,259.4C77.4,298.6,93.5,337.6,108.6,378.2z M15.7,151.6
		c32.7-10.2,63.5-20.6,93.3-31.4c-15.1,40.8-31.4,80-49.5,119.7C46,211.2,31.5,182,15.7,151.6L15.7,151.6z M155,14.6
		c29.7,15.5,58.3,29.7,86.5,42.9c-39.2,17.9-78.1,34-118.7,49.1c10.6-29.5,20.8-59.9,30.8-92H155z M347.3,14.6
		c10,32,20.1,62.3,30.7,91.6c-39.8-14.9-78.3-30.8-117.2-48.6c28.2-13.2,56.8-27.4,86.4-42.9H347.3z M391.6,119.9
		c29.7,10.8,60.2,21,92.5,31.1l1.4,1.4c-15.9,30.4-30.5,59.7-44,88.4C423.3,200.9,407,161.3,391.6,119.9z M388,109.9
		c-9.8-26.8-19.2-54.5-28.4-83.5l112.1,112.2C442.7,129.3,414.9,119.8,388,109.9z M251.1,53.1c-25.7-11.9-51.7-24.6-78.5-38.5
		l156.9,0C302.8,28.4,276.9,41.1,251.1,53.1z M112.7,110.3c-27.1,9.9-55.1,19.5-84.5,28.9L141.4,26
		C132.1,55.2,122.6,83.2,112.7,110.3z M55.1,249.7c-12.4,26.8-25.7,53.9-40.2,81.9l0-163.8C29.3,195.8,42.6,222.9,55.1,249.7z
		 M112.3,388.2c10.1,27.6,19.7,56,29.3,85.9L26.4,359C56.3,368.5,84.7,378.1,112.3,388.2z M251.6,446c26.2,12.2,52.8,25.2,80.3,39.4
		l-160.7,0C198.7,471.2,225.3,458.2,251.6,446z M388.5,389.3c27-9.9,54.9-19.4,84.1-28.8L359.8,473.3
		C369.1,444.2,378.6,416.4,388.5,389.3z M446,250.5c12.2-26.4,25.4-53.1,39.6-80.8l0,161.5C471.4,303.7,458.3,277,446,250.5z"/>
	<path fill="#FFFFFF" d="M315.8,172.1H183.6l-5.4,43.7h2.4l0.2-0.5c3.7-8.2,7.4-15.2,11-20.7c3.5-5.5,7-9.7,10.4-12.6
		c3.4-2.9,6.6-4.9,9.6-6c3-1.1,6.3-1.7,9.8-1.7H235v143.8c0,9-8.3,14.5-24.6,16.2l-0.7,0.1v2.4h79.8v-2.4l-0.7-0.1
		c-16.3-1.8-24.6-7.2-24.6-16.2V174.5h13.4c3.5,0,6.8,0.6,9.8,1.7c3,1.1,6.2,3.1,9.6,6c3.4,2.9,6.9,7.1,10.4,12.6
		c3.5,5.5,7.2,12.4,11,20.7l0.2,0.5h2.3L315.8,172.1z"/>
</g>
</svg>
